<svg width="1189" height="345" fill="none" xmlns="http://www.w3.org/2000/svg"><path d="M345 172.5c0 95.269-77.231 172.5-172.5 172.5C77.23 345 0 267.769 0 172.5 0 77.23 77.23 0 172.5 0 267.769 0 345 77.23 345 172.5Z" fill="#D26D56"/><path d="M255.182 217.896c-8.448 0-16.213-1.963-23.296-5.888-6.997-3.925-12.587-9.387-16.768-16.384-4.096-7.083-6.144-15.019-6.144-23.808s2.048-16.683 6.144-23.68c4.181-6.997 9.771-12.459 16.768-16.384 7.083-3.925 14.848-5.888 23.296-5.888 8.448 0 16.171 1.963 23.168 5.888 7.083 3.925 12.629 9.387 16.64 16.384 4.096 6.997 6.144 14.891 6.144 23.68s-2.048 16.725-6.144 23.808c-4.096 6.997-9.643 12.459-16.64 16.384-6.997 3.925-14.72 5.888-23.168 5.888Zm0-19.968c7.168 0 12.885-2.389 17.152-7.168 4.352-4.779 6.528-11.093 6.528-18.944 0-7.936-2.176-14.251-6.528-18.944-4.267-4.779-9.984-7.168-17.152-7.168-7.253 0-13.056 2.347-17.408 7.04-4.267 4.693-6.4 11.051-6.4 19.072 0 7.936 2.133 14.293 6.4 19.072 4.352 4.693 10.155 7.04 17.408 7.04ZM111.474 171.944c0-8.875 1.92-16.768 5.76-23.68 3.84-6.997 9.173-12.416 16-16.256 6.912-3.925 14.72-5.888 23.424-5.888 10.667 0 19.797 2.816 27.392 8.448 7.595 5.632 12.672 13.312 15.232 23.04h-24.064c-1.792-3.755-4.352-6.613-7.68-8.576-3.243-1.963-6.955-2.944-11.136-2.944-6.741 0-12.203 2.347-16.384 7.04-4.181 4.693-6.272 10.965-6.272 18.816 0 7.851 2.091 14.123 6.272 18.816s9.643 7.04 16.384 7.04c4.181 0 7.893-.981 11.136-2.944 3.328-1.963 5.888-4.821 7.68-8.576h24.064c-2.56 9.728-7.637 17.408-15.232 23.04-7.595 5.547-16.725 8.32-27.392 8.32-8.704 0-16.512-1.92-23.424-5.76-6.827-3.925-12.16-9.344-16-16.256-3.84-6.912-5.76-14.805-5.76-23.68ZM67.824 144.68v18.176h29.312v16.896H67.824v19.712h33.152V217h-55.04v-89.856h55.04v17.536H67.824ZM1160.25 201.128h-33.54L1121.34 217h-22.92l32.51-89.856h25.35L1188.79 217h-23.17l-5.37-15.872Zm-5.64-16.896-11.13-32.896-11.01 32.896h22.14ZM1088.45 127.144V217h-21.89v-89.856h21.89ZM965.349 171.944c0-8.875 1.92-16.768 5.76-23.68 3.84-6.997 9.173-12.416 16-16.256 6.912-3.925 14.721-5.888 23.421-5.888 10.67 0 19.8 2.816 27.39 8.448 7.6 5.632 12.68 13.312 15.24 23.04h-24.07c-1.79-3.755-4.35-6.613-7.68-8.576-3.24-1.963-6.95-2.944-11.13-2.944-6.74 0-12.206 2.347-16.387 7.04-4.181 4.693-6.272 10.965-6.272 18.816 0 7.851 2.091 14.123 6.272 18.816s9.647 7.04 16.387 7.04c4.18 0 7.89-.981 11.13-2.944 3.33-1.963 5.89-4.821 7.68-8.576h24.07c-2.56 9.728-7.64 17.408-15.24 23.04-7.59 5.547-16.72 8.32-27.39 8.32-8.7 0-16.509-1.92-23.421-5.76-6.827-3.925-12.16-9.344-16-16.256-3.84-6.912-5.76-14.805-5.76-23.68ZM953.195 217h-21.888l-36.608-55.424V217h-21.888v-89.856h21.888l36.608 55.68v-55.68h21.888V217ZM825.449 144.68v18.176h29.312v16.896h-29.312v19.712h33.152V217h-55.04v-89.856h55.04v17.536h-33.152ZM787.699 127.144V217h-21.888v-89.856h21.888ZM664.599 171.944c0-8.875 1.92-16.768 5.76-23.68 3.84-6.997 9.173-12.416 16-16.256 6.912-3.925 14.72-5.888 23.424-5.888 10.667 0 19.797 2.816 27.392 8.448 7.595 5.632 12.672 13.312 15.232 23.04h-24.064c-1.792-3.755-4.352-6.613-7.68-8.576-3.243-1.963-6.955-2.944-11.136-2.944-6.741 0-12.203 2.347-16.384 7.04-4.181 4.693-6.272 10.965-6.272 18.816 0 7.851 2.091 14.123 6.272 18.816s9.643 7.04 16.384 7.04c4.181 0 7.893-.981 11.136-2.944 3.328-1.963 5.888-4.821 7.68-8.576h24.064c-2.56 9.728-7.637 17.408-15.232 23.04-7.595 5.547-16.725 8.32-27.392 8.32-8.704 0-16.512-1.92-23.424-5.76-6.827-3.925-12.16-9.344-16-16.256-3.84-6.912-5.76-14.805-5.76-23.68ZM652.445 217h-21.888l-36.608-55.424V217h-21.888v-89.856h21.888l36.608 55.68v-55.68h21.888V217ZM513.932 217.896c-8.448 0-16.213-1.963-23.296-5.888-6.997-3.925-12.587-9.387-16.768-16.384-4.096-7.083-6.144-15.019-6.144-23.808s2.048-16.683 6.144-23.68c4.181-6.997 9.771-12.459 16.768-16.384 7.083-3.925 14.848-5.888 23.296-5.888 8.448 0 16.171 1.963 23.168 5.888 7.083 3.925 12.629 9.387 16.64 16.384 4.096 6.997 6.144 14.891 6.144 23.68s-2.048 16.725-6.144 23.808c-4.096 6.997-9.643 12.459-16.64 16.384-6.997 3.925-14.72 5.888-23.168 5.888Zm0-19.968c7.168 0 12.885-2.389 17.152-7.168 4.352-4.779 6.528-11.093 6.528-18.944 0-7.936-2.176-14.251-6.528-18.944-4.267-4.779-9.984-7.168-17.152-7.168-7.253 0-13.056 2.347-17.408 7.04-4.267 4.693-6.4 11.051-6.4 19.072 0 7.936 2.133 14.293 6.4 19.072 4.352 4.693 10.155 7.04 17.408 7.04ZM370.224 171.944c0-8.875 1.92-16.768 5.76-23.68 3.84-6.997 9.173-12.416 16-16.256 6.912-3.925 14.72-5.888 23.424-5.888 10.667 0 19.797 2.816 27.392 8.448 7.595 5.632 12.672 13.312 15.232 23.04h-24.064c-1.792-3.755-4.352-6.613-7.68-8.576-3.243-1.963-6.955-2.944-11.136-2.944-6.741 0-12.203 2.347-16.384 7.04-4.181 4.693-6.272 10.965-6.272 18.816 0 7.851 2.091 14.123 6.272 18.816s9.643 7.04 16.384 7.04c4.181 0 7.893-.981 11.136-2.944 3.328-1.963 5.888-4.821 7.68-8.576h24.064c-2.56 9.728-7.637 17.408-15.232 23.04-7.595 5.547-16.725 8.32-27.392 8.32-8.704 0-16.512-1.92-23.424-5.76-6.827-3.925-12.16-9.344-16-16.256-3.84-6.912-5.76-14.805-5.76-23.68Z" fill="#fff"/></svg>