<svg width="345" height="345" viewBox="0 0 345 345" fill="none" xmlns="http://www.w3.org/2000/svg">
<path d="M345 172.5C345 267.769 267.769 345 172.5 345C77.2309 345 0 267.769 0 172.5C0 77.2309 77.2309 0 172.5 0C267.769 0 345 77.2309 345 172.5Z" fill="#D26D56"/>
<path d="M255.182 217.896C246.734 217.896 238.969 215.933 231.886 212.008C224.889 208.083 219.299 202.621 215.118 195.624C211.022 188.541 208.974 180.605 208.974 171.816C208.974 163.027 211.022 155.133 215.118 148.136C219.299 141.139 224.889 135.677 231.886 131.752C238.969 127.827 246.734 125.864 255.182 125.864C263.63 125.864 271.353 127.827 278.35 131.752C285.433 135.677 290.979 141.139 294.99 148.136C299.086 155.133 301.134 163.027 301.134 171.816C301.134 180.605 299.086 188.541 294.99 195.624C290.894 202.621 285.347 208.083 278.35 212.008C271.353 215.933 263.63 217.896 255.182 217.896ZM255.182 197.928C262.35 197.928 268.067 195.539 272.334 190.76C276.686 185.981 278.862 179.667 278.862 171.816C278.862 163.88 276.686 157.565 272.334 152.872C268.067 148.093 262.35 145.704 255.182 145.704C247.929 145.704 242.126 148.051 237.774 152.744C233.507 157.437 231.374 163.795 231.374 171.816C231.374 179.752 233.507 186.109 237.774 190.888C242.126 195.581 247.929 197.928 255.182 197.928Z" fill="white"/>
<path d="M111.474 171.944C111.474 163.069 113.394 155.176 117.234 148.264C121.074 141.267 126.407 135.848 133.234 132.008C140.146 128.083 147.954 126.12 156.658 126.12C167.325 126.12 176.455 128.936 184.05 134.568C191.645 140.2 196.722 147.88 199.282 157.608H175.218C173.426 153.853 170.866 150.995 167.538 149.032C164.295 147.069 160.583 146.088 156.402 146.088C149.661 146.088 144.199 148.435 140.018 153.128C135.837 157.821 133.746 164.093 133.746 171.944C133.746 179.795 135.837 186.067 140.018 190.76C144.199 195.453 149.661 197.8 156.402 197.8C160.583 197.8 164.295 196.819 167.538 194.856C170.866 192.893 173.426 190.035 175.218 186.28H199.282C196.722 196.008 191.645 203.688 184.05 209.32C176.455 214.867 167.325 217.64 156.658 217.64C147.954 217.64 140.146 215.72 133.234 211.88C126.407 207.955 121.074 202.536 117.234 195.624C113.394 188.712 111.474 180.819 111.474 171.944Z" fill="white"/>
<path d="M67.824 144.68V162.856H97.136V179.752H67.824V199.464H100.976V217H45.936V127.144H100.976V144.68H67.824Z" fill="white"/>
</svg>
