<svg width="1189" height="345" viewBox="0 0 1189 345" fill="none" xmlns="http://www.w3.org/2000/svg">
<path d="M345 172.5C345 267.769 267.769 345 172.5 345C77.2309 345 0 267.769 0 172.5C0 77.2309 77.2309 0 172.5 0C267.769 0 345 77.2309 345 172.5Z" fill="#D26D56"/>
<path d="M255.182 217.896C246.734 217.896 238.969 215.933 231.886 212.008C224.889 208.083 219.299 202.621 215.118 195.624C211.022 188.541 208.974 180.605 208.974 171.816C208.974 163.027 211.022 155.133 215.118 148.136C219.299 141.139 224.889 135.677 231.886 131.752C238.969 127.827 246.734 125.864 255.182 125.864C263.63 125.864 271.353 127.827 278.35 131.752C285.433 135.677 290.979 141.139 294.99 148.136C299.086 155.133 301.134 163.027 301.134 171.816C301.134 180.605 299.086 188.541 294.99 195.624C290.894 202.621 285.347 208.083 278.35 212.008C271.353 215.933 263.63 217.896 255.182 217.896ZM255.182 197.928C262.35 197.928 268.067 195.539 272.334 190.76C276.686 185.981 278.862 179.667 278.862 171.816C278.862 163.88 276.686 157.565 272.334 152.872C268.067 148.093 262.35 145.704 255.182 145.704C247.929 145.704 242.126 148.051 237.774 152.744C233.507 157.437 231.374 163.795 231.374 171.816C231.374 179.752 233.507 186.109 237.774 190.888C242.126 195.581 247.929 197.928 255.182 197.928Z" fill="white"/>
<path d="M111.474 171.944C111.474 163.069 113.394 155.176 117.234 148.264C121.074 141.267 126.407 135.848 133.234 132.008C140.146 128.083 147.954 126.12 156.658 126.12C167.325 126.12 176.455 128.936 184.05 134.568C191.645 140.2 196.722 147.88 199.282 157.608H175.218C173.426 153.853 170.866 150.995 167.538 149.032C164.295 147.069 160.583 146.088 156.402 146.088C149.661 146.088 144.199 148.435 140.018 153.128C135.837 157.821 133.746 164.093 133.746 171.944C133.746 179.795 135.837 186.067 140.018 190.76C144.199 195.453 149.661 197.8 156.402 197.8C160.583 197.8 164.295 196.819 167.538 194.856C170.866 192.893 173.426 190.035 175.218 186.28H199.282C196.722 196.008 191.645 203.688 184.05 209.32C176.455 214.867 167.325 217.64 156.658 217.64C147.954 217.64 140.146 215.72 133.234 211.88C126.407 207.955 121.074 202.536 117.234 195.624C113.394 188.712 111.474 180.819 111.474 171.944Z" fill="white"/>
<path d="M67.824 144.68V162.856H97.136V179.752H67.824V199.464H100.976V217H45.936V127.144H100.976V144.68H67.824Z" fill="white"/>
<path d="M1160.25 201.128H1126.71L1121.34 217H1098.42L1130.93 127.144H1156.28L1188.79 217H1165.62L1160.25 201.128ZM1154.61 184.232L1143.48 151.336L1132.47 184.232H1154.61Z" fill="white"/>
<path d="M1088.45 127.144V217H1066.56V127.144H1088.45Z" fill="white"/>
<path d="M965.349 171.944C965.349 163.069 967.269 155.176 971.109 148.264C974.949 141.267 980.282 135.848 987.109 132.008C994.021 128.083 1001.83 126.12 1010.53 126.12C1021.2 126.12 1030.33 128.936 1037.92 134.568C1045.52 140.2 1050.6 147.88 1053.16 157.608H1029.09C1027.3 153.853 1024.74 150.995 1021.41 149.032C1018.17 147.069 1014.46 146.088 1010.28 146.088C1003.54 146.088 998.074 148.435 993.893 153.128C989.712 157.821 987.621 164.093 987.621 171.944C987.621 179.795 989.712 186.067 993.893 190.76C998.074 195.453 1003.54 197.8 1010.28 197.8C1014.46 197.8 1018.17 196.819 1021.41 194.856C1024.74 192.893 1027.3 190.035 1029.09 186.28H1053.16C1050.6 196.008 1045.52 203.688 1037.92 209.32C1030.33 214.867 1021.2 217.64 1010.53 217.64C1001.83 217.64 994.021 215.72 987.109 211.88C980.282 207.955 974.949 202.536 971.109 195.624C967.269 188.712 965.349 180.819 965.349 171.944Z" fill="white"/>
<path d="M953.195 217H931.307L894.699 161.576V217H872.811V127.144H894.699L931.307 182.824V127.144H953.195V217Z" fill="white"/>
<path d="M825.449 144.68V162.856H854.761V179.752H825.449V199.464H858.601V217H803.561V127.144H858.601V144.68H825.449Z" fill="white"/>
<path d="M787.699 127.144V217H765.811V127.144H787.699Z" fill="white"/>
<path d="M664.599 171.944C664.599 163.069 666.519 155.176 670.359 148.264C674.199 141.267 679.532 135.848 686.359 132.008C693.271 128.083 701.079 126.12 709.783 126.12C720.45 126.12 729.58 128.936 737.175 134.568C744.77 140.2 749.847 147.88 752.407 157.608H728.343C726.551 153.853 723.991 150.995 720.663 149.032C717.42 147.069 713.708 146.088 709.527 146.088C702.786 146.088 697.324 148.435 693.143 153.128C688.962 157.821 686.871 164.093 686.871 171.944C686.871 179.795 688.962 186.067 693.143 190.76C697.324 195.453 702.786 197.8 709.527 197.8C713.708 197.8 717.42 196.819 720.663 194.856C723.991 192.893 726.551 190.035 728.343 186.28H752.407C749.847 196.008 744.77 203.688 737.175 209.32C729.58 214.867 720.45 217.64 709.783 217.64C701.079 217.64 693.271 215.72 686.359 211.88C679.532 207.955 674.199 202.536 670.359 195.624C666.519 188.712 664.599 180.819 664.599 171.944Z" fill="white"/>
<path d="M652.445 217H630.557L593.949 161.576V217H572.061V127.144H593.949L630.557 182.824V127.144H652.445V217Z" fill="white"/>
<path d="M513.932 217.896C505.484 217.896 497.719 215.933 490.636 212.008C483.639 208.083 478.049 202.621 473.868 195.624C469.772 188.541 467.724 180.605 467.724 171.816C467.724 163.027 469.772 155.133 473.868 148.136C478.049 141.139 483.639 135.677 490.636 131.752C497.719 127.827 505.484 125.864 513.932 125.864C522.38 125.864 530.103 127.827 537.1 131.752C544.183 135.677 549.729 141.139 553.74 148.136C557.836 155.133 559.884 163.027 559.884 171.816C559.884 180.605 557.836 188.541 553.74 195.624C549.644 202.621 544.097 208.083 537.1 212.008C530.103 215.933 522.38 217.896 513.932 217.896ZM513.932 197.928C521.1 197.928 526.817 195.539 531.084 190.76C535.436 185.981 537.612 179.667 537.612 171.816C537.612 163.88 535.436 157.565 531.084 152.872C526.817 148.093 521.1 145.704 513.932 145.704C506.679 145.704 500.876 148.051 496.524 152.744C492.257 157.437 490.124 163.795 490.124 171.816C490.124 179.752 492.257 186.109 496.524 190.888C500.876 195.581 506.679 197.928 513.932 197.928Z" fill="white"/>
<path d="M370.224 171.944C370.224 163.069 372.144 155.176 375.984 148.264C379.824 141.267 385.157 135.848 391.984 132.008C398.896 128.083 406.704 126.12 415.408 126.12C426.075 126.12 435.205 128.936 442.8 134.568C450.395 140.2 455.472 147.88 458.032 157.608H433.968C432.176 153.853 429.616 150.995 426.288 149.032C423.045 147.069 419.333 146.088 415.152 146.088C408.411 146.088 402.949 148.435 398.768 153.128C394.587 157.821 392.496 164.093 392.496 171.944C392.496 179.795 394.587 186.067 398.768 190.76C402.949 195.453 408.411 197.8 415.152 197.8C419.333 197.8 423.045 196.819 426.288 194.856C429.616 192.893 432.176 190.035 433.968 186.28H458.032C455.472 196.008 450.395 203.688 442.8 209.32C435.205 214.867 426.075 217.64 415.408 217.64C406.704 217.64 398.896 215.72 391.984 211.88C385.157 207.955 379.824 202.536 375.984 195.624C372.144 188.712 370.224 180.819 370.224 171.944Z" fill="white"/>
</svg>
